<svg height="512pt" viewBox="-4 0 512 512" width="512pt" xmlns="http://www.w3.org/2000/svg"><path d="m504.527344 112.15625v389.691406c0 5.605469-4.546875 10.152344-10.152344 10.152344h-484.222656c-5.605469 0-10.152344-4.546875-10.152344-10.152344v-389.691406c0-5.523438 4.476562-10 10-10h484.527344c5.523437 0 10 4.476562 10 10zm0 0" fill="#9bf8f8"/><path d="m504.527344 315.894531v185.953125c0 5.605469-4.550782 10.152344-10.152344 10.152344h-484.222656c-5.605469 0-10.152344-4.546875-10.152344-10.152344v-83.332031c344.378906-1.929687 465.796875-69.699219 504.527344-102.621094zm0 0" fill="#1ee5ed"/><path d="m411.570312 395.71875c-1.835937 0-3.679687-.175781-5.484374-.539062-.664063-.132813-1.304688-.351563-1.910157-.65625-.53125-.261719-.890625-.382813-1.542969-.601563-.859374-.285156-2.035156-.679687-3.535156-1.429687-.476562-.238282-.929687-.527344-1.351562-.863282-7.5625-6.050781-11.195313-13.757812-10.222656-21.695312.507812-4.171875 4.332031-7.140625 8.480468-6.632813 4.175782.511719 7.144532 4.308594 6.632813 8.484375-.355469 2.894532 1.808593 5.535156 3.945312 7.390625.253907.097657.519531.183594.867188.300781.628906.210938 1.433593.476563 2.40625.902344 2.796875.359375 5.964843-.238281 7.96875-1.515625 1.578125-1.734375 2.820312-4.078125 3.554687-6.699219.378906-5.066406-2.167968-9.023437-6.625-10.335937h-2.097656c-4.074219 0-7.425781-3.203125-7.605469-7.273437-.992187-22.15625-1.433593-46.140626-1.378906-75.472657.007813-4.199219 3.414063-7.601562 7.613281-7.601562h.015625c4.203125.007812 7.605469 3.421875 7.597657 7.628906-.046876 26.300781.300781 48.242187 1.09375 68.402344 11.171874 3.722656 17.855468 14.386719 16.472656 26.832031-.039063.339844-.097656.675781-.179688 1.003906-1.421875 5.683594-4.296875 10.90625-8.09375 14.707032-.253906.253906-.527344.488281-.816406.707031-4.277344 3.207031-10.007812 4.957031-15.804688 4.957031zm0 0" fill="#9ac6c3"/><path d="m411.570312 247.242188c-.03125 0-.058593 0-.085937 0-4.203125-.046876-7.578125-3.492188-7.53125-7.695313.214844-19.78125.472656-53.546875.570313-71.480469.023437-4.207031 3.449218-7.621094 7.65625-7.574218 4.203124.023437 7.59375 3.449218 7.574218 7.65625-.101562 17.953124-.359375 51.757812-.574218 71.5625-.042969 4.175781-3.445313 7.53125-7.609376 7.53125zm0 0" fill="#75a4c8"/><path d="m411.761719 77.082031c-4.207031 0-7.613281-3.40625-7.617188-7.613281-.003906-20.246094.117188-41.085938.363281-61.945312.046876-4.171876 3.445313-7.523438 7.609376-7.523438h.089843c4.203125.0507812 7.574219 3.496094 7.523438 7.703125-.246094 21.089844-.363281 41.292969-.359375 61.761719.003906 4.207031-3.40625 7.613281-7.609375 7.617187zm0 0" fill="#75a4c8"/><path d="m251.65625 340.597656-145.96875 66.339844-1.140625-2.511719c-2.910156-6.398437-4.460937-13.089843-4.746094-19.75-.867187-19.304687 8.828125-38.257812 26.425781-48.5625l69.878907-40.90625c11.496093-6.734375 25.578125-4.554687 34.566406 4.109375 2.542969 2.445313 4.679687 5.40625 6.238281 8.835938zm0 0" fill="#ffdf49"/><path d="m104.546875 404.425781c-2.910156-6.398437-4.460937-13.089843-4.746094-19.75.113281-.171875.222657-.339843.34375-.515625 23.355469-34.726562 54.992188-60.09375 91.496094-73.378906 13.585937-4.945312 26.605469-8.765625 39.03125-11.460938 2.542969 2.445313 4.675781 5.40625 6.238281 8.832032l14.746094 32.445312-145.96875 66.339844zm0 0" fill="#ffbd47"/><path d="m274.871094 404.375 9.554687 34.320312c1.09375 3.925782 1.320313 7.871094.789063 11.640626-1.644532 12.050781-10.894532 22.332031-23.722656 24.515624l-79.832032 13.574219c-19.765625 3.359375-39.050781-4.59375-50.863281-19.449219-4.34375-5.460937-7.667969-11.84375-9.648437-18.945312l-.738282-2.648438zm0 0" fill="#1e6be7"/><path d="m120.410156 447.382812 154.460938-43.007812 9.554687 34.320312c1.09375 3.925782 1.320313 7.871094.789063 11.640626-11.160156 5.84375-23.472656 11.222656-36.914063 16.113281-36.507812 13.289062-77.046875 14.183593-117.257812 2.601562-.085938-.023437-.160157-.050781-.242188-.074219-4.34375-5.460937-7.671875-11.84375-9.652343-18.945312zm0 0" fill="#3e4eb7"/><path d="m350.621094 341.0625s13.539062 70.257812-106.488282 113.945312c-83.308593 30.320313-156.949218-18.0625-156.949218-18.0625s25.3125-84.398437 108.617187-114.71875c120.03125-43.691406 154.820313 18.835938 154.820313 18.835938zm0 0" fill="#2081f6"/><path d="m229.042969 459.695312c-76.914063 19.925782-141.859375-22.753906-141.859375-22.753906s22.320312-74.433594 94.046875-108.609375c-37.699219 42.71875-8.523438 122.875 47.8125 131.363281zm0 0" fill="#1e6be7"/><path d="m129.734375 411.210938c9.753906-.269532 14.230469 12.035156 6.585937 18.097656l-45.242187 35.890625-32.605469 25.871093c-5.425781 4.304688-13.480468 2.027344-15.847656-4.480468l-21.484375-59.03125c-2.371094-6.511719 2.332031-13.429688 9.257813-13.621094l41.609374-1.140625zm0 0" fill="#336686"/><path d="m113.394531 427.40625-22.316406 37.792969-32.605469 25.871093c-5.425781 4.304688-13.480468 2.027344-15.847656-4.480468l-21.484375-59.03125c-2.371094-6.511719 2.332031-13.429688 9.257813-13.621094l41.609374-1.140625zm0 0" fill="#ffdf49"/><path d="m251.757812 414.367188 20.613282-7.503907c2.597656-.945312 3.933594-3.8125 2.988281-6.410156l-8.882813-24.410156c-.945312-2.59375-3.816406-3.933594-6.410156-2.988281l-20.617187 7.503906c-7.140625 2.601562-10.828125 10.5-8.226563 17.644531l2.886719 7.9375c2.601563 7.140625 10.503906 10.828125 17.648437 8.226563zm0 0" fill="#ffdf49"/><path d="m290.453125 347.296875c-3.136719 0-6.070313-1.953125-7.175781-5.074219-1.40625-3.964844.671875-8.316406 4.636718-9.71875l.105469-.035156c3.957031-1.402344 8.3125.671875 9.714844 4.636719 1.40625 3.964843-.671875 8.316406-4.636719 9.71875l-.105468.035156c-.839844.296875-1.695313.4375-2.539063.4375zm0 0" fill="#336686"/><path d="m356.054688 251.679688h-12.363282c-.210937 0-.425781.011718-.636718.015624-.105469-.003906-.207032-.015624-.3125-.015624h-9.316407c-12.46875 0-22.613281-10.144532-22.613281-22.613282 0-4.203125-3.40625-7.613281-7.613281-7.613281s-7.613281 3.410156-7.613281 7.613281c0 14.871094 8.628906 27.761719 21.136718 33.945313-6.714844 6.832031-10.871094 16.191406-10.871094 26.507812 0 4.207031 3.40625 7.613281 7.613282 7.613281 4.207031 0 7.613281-3.40625 7.613281-7.613281 0-12.46875 10.144531-22.613281 22.613281-22.613281h12.359375c4.207031 0 7.613281-3.410156 7.613281-7.613281s-3.40625-7.613281-7.609374-7.613281zm0 0" fill="#75a4c8"/><path d="m466.121094 278.148438h-90.199219c-10.414063 0-18.855469-8.441407-18.855469-18.855469 0-10.414063 8.441406-18.855469 18.855469-18.855469h90.199219c10.414062 0 18.855468 8.441406 18.855468 18.855469 0 10.414062-8.441406 18.855469-18.855468 18.855469zm0 0" fill="#f55"/><path d="m412.117188 240.441406h29.882812v37.707032h-29.882812zm0 0" fill="#e6f072"/><path d="m419.390625 324.242188h-24.3125c-4.203125 0-7.613281-3.40625-7.613281-7.613282 0-4.203125 3.40625-7.613281 7.613281-7.613281h24.3125c4.207031 0 7.613281 3.410156 7.613281 7.613281 0 4.207032-3.40625 7.613282-7.613281 7.613282zm0 0" fill="#1ee5ed"/><path d="m451.199219 110.652344c0 19.855468-20 46.890625-31.386719 60.671875-3.988281 4.824219-11.402344 4.824219-15.390625 0-11.382813-13.78125-31.386719-40.816407-31.386719-60.671875 0-3.007813.203125-5.839844.597656-8.488282 3.25-21.796874 19.238282-31.613281 38.484376-31.613281 19.246093 0 35.234374 9.816407 38.484374 31.613281.394532 2.648438.597657 5.480469.597657 8.488282zm0 0" fill="#e6f072"/><path d="m451.199219 110.652344c0 19.855468-20 46.890625-31.386719 60.671875-3.988281 4.824219-11.402344 4.824219-15.390625 0-11.382813-13.78125-31.386719-40.816407-31.386719-60.671875 0-3.007813.203125-5.839844.597656-8.488282h76.96875c.394532 2.648438.597657 5.480469.597657 8.488282zm0 0" fill="#eea97b"/><path d="m144.773438 221.601562c0 10.402344-8.433594 18.835938-18.835938 18.835938-10.40625 0-18.839844-8.433594-18.839844-18.835938 0-10.40625 8.433594-18.839843 18.839844-18.839843 10.402344 0 18.835938 8.433593 18.835938 18.839843zm0 0" fill="#1ee5ed"/><path d="m144.769531 221.605469c0 10.394531-8.425781 18.832031-18.832031 18.832031-2.8125 0-5.472656-.621094-7.867188-1.726562 6.476563-2.972657 10.964844-9.523438 10.964844-17.105469 0-7.59375-4.488281-14.140625-10.964844-17.113281 2.398438-1.105469 5.054688-1.726563 7.867188-1.726563 10.40625 0 18.832031 8.433594 18.832031 18.839844zm0 0" fill="#1abfc7"/><path d="m470.039062 438.996094c0 10.40625-8.433593 18.839844-18.835937 18.839844-10.40625 0-18.839844-8.433594-18.839844-18.839844 0-10.402344 8.433594-18.835938 18.839844-18.835938 10.402344 0 18.835937 8.433594 18.835937 18.835938zm0 0" fill="#9bf8f8"/><path d="m213.6875 180.1875c0 15.402344-12.484375 27.890625-27.886719 27.890625-15.40625 0-27.890625-12.488281-27.890625-27.890625s12.484375-27.886719 27.890625-27.886719c15.402344 0 27.886719 12.484375 27.886719 27.886719zm0 0" fill="#1ee5ed"/><path d="m213.679688 180.195312c0 15.390626-12.472657 27.878907-27.878907 27.878907-4.160156 0-8.097656-.917969-11.644531-2.554688 9.585938-4.40625 16.230469-14.097656 16.230469-25.324219 0-11.242187-6.644531-20.933593-16.230469-25.339843 3.546875-1.636719 7.484375-2.554688 11.644531-2.554688 15.40625 0 27.878907 12.488281 27.878907 27.894531zm0 0" fill="#1abfc7"/><g fill="#d0f4ef"><path d="m121.367188 285.761719c-.023438 0-.046876 0-.070313 0h-.109375c-4.207031-.039063-7.582031-3.476563-7.546875-7.683594.039063-4.203125 3.488281-7.625 7.683594-7.542969h.109375c4.207031.035156 7.582031 3.476563 7.546875 7.679688-.039063 4.183594-3.441407 7.546875-7.613281 7.546875zm0 0"/><path d="m99.859375 298.863281c-.023437 0-.046875 0-.070313 0h-.109374c-4.207032-.035156-7.585938-3.476562-7.546876-7.679687.039063-4.207032 3.480469-7.605469 7.679688-7.546875l.113281.003906c4.203125.035156 7.582031 3.472656 7.542969 7.679687-.035156 4.179688-3.4375 7.542969-7.609375 7.542969zm0 0"/><path d="m67.011719 166.484375c-.011719 0-.023438 0-.035157 0h-.109374c-4.207032-.019531-7.597657-3.445313-7.582032-7.648437.019532-4.191407 3.425782-7.578126 7.613282-7.578126h.035156.113281c4.203125.019532 7.597656 3.441407 7.578125 7.648438-.019531 4.191406-3.425781 7.578125-7.613281 7.578125zm0 0"/><path d="m325.433594 182.730469c-.019532 0-.039063 0-.054688 0l-.863281-.007813c-4.207031-.03125-7.589844-3.464844-7.558594-7.671875.03125-4.183593 3.433594-7.554687 7.613281-7.554687h.058594l.863282.003906c4.203124.03125 7.585937 3.46875 7.554687 7.671875-.03125 4.183594-3.433594 7.558594-7.613281 7.558594zm0 0"/></g></svg>