<svg height="512pt" viewBox="0 -53 512 512" width="512pt" xmlns="http://www.w3.org/2000/svg"><path d="m440.964844 112.476562-86.03125 86.03125-181.4375-181.4375c-6.300782-6.300781-1.835938-17.070312 7.070312-17.070312h143.777344c2.652344 0 5.195312 1.054688 7.070312 2.929688l67.046876 67.042968zm0 0" fill="#4c78a0"/><path d="m440.964844 112.476562-86.03125 86.03125-54.121094-54.121093c3.667969-5.226563 9.742188-8.65625 16.59375-8.65625h15.234375c11.171875 0 20.261719 9.089843 20.261719 20.253906v11.582031c13.832031-2.894531 26.386718-9.902344 37.425781-20.941406 20.871094-20.871094 4.78125-44.96875 2.886719-47.648438-5.734375-8.027343-4.804688-18.964843 2.222656-25.992187l3.023438-3.011719zm0 0" fill="#336686"/><path d="m278.203125 230.726562c0 76.824219-62.277344 139.101563-139.101563 139.101563-76.824218 0-139.101562-62.277344-139.101562-139.101563 0-76.820312 62.277344-139.097656 139.101562-139.097656 76.824219 0 139.101563 62.277344 139.101563 139.097656zm0 0" fill="#d0f4ef"/><path d="m278.199219 230.726562c0 76.828126-62.269531 139.101563-139.097657 139.101563-28.777343 0-55.511718-8.738281-77.691406-23.707031 14.261719 4.949218 29.589844 7.628906 45.535156 7.628906 76.816407 0 139.097657-62.285156 139.097657-139.101562 0-48.039063-24.355469-90.402344-61.394531-115.394532 54.457031 18.863282 93.550781 70.601563 93.550781 131.472656zm0 0" fill="#abe0da"/><g fill="#628fb1"><path d="m340.535156 208.054688h-31.011718v-52.066407c0-4.359375 3.53125-7.890625 7.886718-7.890625h15.234375c4.359375 0 7.890625 3.53125 7.890625 7.890625zm0 0"/><path d="m336.570312 402.894531c-4.554687 4.554688-11.941406 4.554688-16.5 0l-17.492187-17.496093c-.222656-.222657-.222656-.589844 0-.8125l15.683594-15.683594c.226562-.226563.589843-.226563.816406 0l17.492187 17.492187c4.554688 4.554688 4.554688 11.941407 0 16.5zm0 0"/><path d="m366.914062 372.550781c-4.558593 4.554688-11.941406 4.554688-16.5 0l-17.492187-17.492187c-.226563-.226563-.226563-.589844 0-.816406l15.683594-15.683594c.222656-.222656.589843-.222656.816406 0l17.492187 17.492187c4.554688 4.558594 4.554688 11.941407 0 16.5zm0 0"/><path d="m397.257812 342.207031c-4.558593 4.554688-11.945312 4.554688-16.5 0l-17.492187-17.492187c-.226563-.226563-.226563-.589844 0-.816406l15.683594-15.683594c.222656-.222656.589843-.222656.8125 0l17.496093 17.496094c4.554688 4.554687 4.554688 11.941406 0 16.496093zm0 0"/><path d="m478.238281 261.222656c-4.554687 4.554688-11.941406 4.554688-16.496093 0l-17.492188-17.492187c-.226562-.226563-.226562-.589844 0-.816407l15.683594-15.683593c.222656-.222657.589844-.222657.8125 0l17.492187 17.496093c4.558594 4.554688 4.558594 11.941407 0 16.496094zm0 0"/><path d="m508.582031 230.878906c-4.554687 4.558594-11.941406 4.558594-16.496093 0l-17.492188-17.492187c-.226562-.226563-.226562-.589844 0-.816407l15.679688-15.679687c.226562-.226563.589843-.226563.816406 0l17.492187 17.492187c4.558594 4.554688 4.558594 11.941407 0 16.496094zm0 0"/></g><path d="m496.894531 210.109375-170.035156 170.035156c-11.375 11.375-25.753906 18.457031-40.878906 20.886719-15.128907 2.429688-31.011719.203125-45.375-7.03125-12.9375-6.519531-15.710938-23.785156-5.46875-34.027344l24.296875-24.296875c11.148437-11.261719 20.132812-24.292969 26.660156-38.429687 3.695312-7.992188 6.609375-16.339844 8.683594-24.929688 2.257812-9.335937 3.539062-18.945312 3.765625-28.679687l.152343-9.746094.757813-49.28125c.078125-5.265625 5.1875-8.960937 10.226563-7.414063 17.777343 5.460938 56.058593 11.507813 89.394531-21.828124 22.621093-22.621094 13.859375-49.984376 4.21875-63.550782-2.222657-3.113281-1.808594-7.386718.890625-10.085937l7.261718-7.265625c2.941407-2.9375 7.648438-3.09375 10.78125-.355469l47.0625 41.21875 25.195313 22.058594c21.683594 18.984375 22.78125 52.347656 2.410156 72.722656zm0 0" fill="#e6f072"/><path d="m496.894531 210.109375-170.035156 170.035156c-11.375 11.375-25.753906 18.457031-40.878906 20.886719-15.128907 2.429688-31.011719.203125-45.375-7.03125-5.753907-2.894531-9.492188-7.914062-10.96875-13.5 13.085937 5.5 27.183593 7.046875 40.683593 4.871094 15.125-2.425782 29.503907-9.511719 40.878907-20.886719l170.035156-170.035156c17.425781-17.425781 19.140625-44.363281 5.695313-63.675781l7.554687 6.613281c21.683594 18.984375 22.78125 52.347656 2.410156 72.722656zm0 0" fill="#cbd359"/><path d="m496.894531 210.109375-10.035156 10.035156c-6.726563-3.011719-13.039063-7.257812-18.59375-12.722656-.132813-.125-.269531-.257813-.394531-.386719-24.949219-24.945312-24.949219-65.390625 0-90.339844.46875-.46875.9375-.925781 1.421875-1.367187l17.640625 15.441406.003906.007813 7.546875 6.609375c21.683594 18.984375 22.78125 52.347656 2.410156 72.722656zm0 0" fill="#d0f4ef"/><path d="m496.894531 210.109375-10.035156 10.035156c-6.726563-3.011719-13.039063-7.257812-18.59375-12.722656l12.96875-12.972656c17.429687-17.425781 19.140625-44.355469 5.703125-63.671875l7.546875 6.609375c21.683594 18.984375 22.78125 52.347656 2.410156 72.722656zm0 0" fill="#abe0da"/><path d="m409.757812 297.246094-38.433593 38.429687h-111.894531c11.152343-11.261719 20.132812-24.292969 26.660156-38.429687zm0 0" fill="#ff71a7"/><path d="m378.4375 297.246094h31.320312l-38.429687 38.429687h-31.320313zm0 0" fill="#ff4b87"/><path d="m473.113281 233.890625-38.425781 38.425781h-139.910156c2.257812-9.332031 3.539062-18.945312 3.765625-28.679687l.152343-9.746094zm0 0" fill="#ff71a7"/><path d="m441.796875 233.890625h31.316406l-38.425781 38.425781h-31.316406zm0 0" fill="#ff4b87"/><path d="m247.878906 176.28125h-124.058594c-4.269531 0-7.730468-3.460938-7.730468-7.730469s3.460937-7.730469 7.730468-7.730469h124.058594c4.269532 0 7.730469 3.460938 7.730469 7.730469s-3.460937 7.730469-7.730469 7.730469zm0 0" fill="#abe0da"/><path d="m89.546875 240.125c0 4.265625-3.464844 7.730469-7.730469 7.730469h-80.777344c-.617187-5.070313-.9687495-10.234375-1.0273432-15.460938h81.8046872c4.265625 0 7.730469 3.464844 7.730469 7.730469zm0 0" fill="#abe0da"/><path d="m126.289062 160.820312h-38.699218c-3.570313 0-6.871094 1.90625-8.660156 5l-19.347657 33.519532c-1.785156 3.09375-1.785156 6.902344 0 10l19.347657 33.515625c1.789062 3.09375 5.089843 5 8.660156 5h38.703125c3.570312 0 6.871093-1.90625 8.660156-5l19.347656-33.515625c1.789063-3.097656 1.789063-6.90625 0-10l-19.347656-33.519532c-1.789063-3.09375-5.089844-5-8.664063-5zm0 0" fill="#ff4b87"/><path d="m148.933594 313.476562h-25.066406c-4.265626 0-7.726563-3.457031-7.726563-7.730468 0-4.269532 3.460937-7.726563 7.726563-7.726563h25.066406c4.269531 0 7.730468 3.457031 7.730468 7.726563 0 4.269531-3.460937 7.730468-7.730468 7.730468zm0 0" fill="#abe0da"/><path d="m148.933594 334.570312h-25.066406c-4.265626 0-7.726563-3.460937-7.726563-7.730468 0-4.269532 3.460937-7.730469 7.726563-7.730469h25.066406c4.269531 0 7.730468 3.460937 7.730468 7.730469 0 4.269531-3.460937 7.730468-7.730468 7.730468zm0 0" fill="#abe0da"/><path d="m207.585938 260.59375c0 8.953125-7.257813 16.207031-16.207032 16.207031-8.953125 0-16.210937-7.253906-16.210937-16.207031s7.257812-16.207031 16.210937-16.207031c8.949219 0 16.207032 7.253906 16.207032 16.207031zm0 0" fill="#4c78a0"/><path d="m274.117188 59.929688h-17.996094c-4.265625 0-7.726563-3.460938-7.726563-7.730469s3.460938-7.730469 7.726563-7.730469h17.996094c4.269531 0 7.730468 3.460938 7.730468 7.730469s-3.460937 7.730469-7.730468 7.730469zm0 0" fill="#336686"/><path d="m292.378906 78.183594h-17.996094c-4.269531 0-7.730468-3.457032-7.730468-7.730469 0-4.269531 3.460937-7.726563 7.730468-7.726563h17.996094c4.265625 0 7.726563 3.457032 7.726563 7.726563 0 4.273437-3.460938 7.730469-7.726563 7.730469zm0 0" fill="#336686"/><path d="m310.636719 96.441406h-17.996094c-4.269531 0-7.730469-3.457031-7.730469-7.726562 0-4.273438 3.460938-7.730469 7.730469-7.730469h17.996094c4.265625 0 7.726562 3.457031 7.726562 7.730469 0 4.269531-3.460937 7.726562-7.726562 7.726562zm0 0" fill="#336686"/></svg>