<svg height="512pt" viewBox="0 -4 512 512" width="512pt" xmlns="http://www.w3.org/2000/svg"><path d="m38.632812 20.605469h431.644532v202.945312h-431.644532zm0 0" fill="#b08989"/><path d="m470.277344 20.605469v47.386719h-65.40625c-3.925782 0-7.117188 3.195312-7.117188 7.117187v47.65625c0 17.800781-14.484375 32.296875-32.296875 32.296875s-32.296875-14.496094-32.296875-32.296875v-30.460937c-4.675781 12.082031-16.421875 20.675781-30.132812 20.675781-17.8125 0-32.296875-14.496094-32.296875-32.304688v-5.566406c0-3.925781-3.191407-7.117187-7.117188-7.117187h-37.304687c-3.921875 0-7.117188 3.195312-7.117188 7.117187v27.054687c0 17.800782-14.484375 32.296876-32.296875 32.296876s-32.296875-14.496094-32.296875-32.296876v-30.753906c0-1.882812-1.535156-3.417968-3.417968-3.417968-1.886719 0-3.410157 1.535156-3.410157 3.417968v65.605469c0 17.808594-14.496093 32.292969-32.304687 32.292969-17.804688 0-32.296875-14.484375-32.296875-32.292969v-61.90625c0-3.925781-3.195313-7.117187-7.109375-7.117187h-37.425782v-47.386719" fill="#8c6c6c"/><path d="m254.453125 207.441406c-4.265625 0-7.722656-3.457031-7.722656-7.726562v-58.578125c0-4.269531 3.457031-7.726563 7.722656-7.726563 4.269531 0 7.726563 3.457032 7.726563 7.726563v58.578125c0 4.269531-3.457032 7.726562-7.726563 7.726562zm0 0" fill="#8c6c6c"/><path d="m198.308594 176.152344c-4.265625 0-7.722656-3.460938-7.722656-7.726563v-47.371093c0-4.265626 3.457031-7.726563 7.722656-7.726563 4.269531 0 7.726562 3.460937 7.726562 7.726563v47.371093c0 4.265625-3.457031 7.726563-7.726562 7.726563zm0 0" fill="#8c6c6c"/><path d="m428.726562 125.691406c-4.265624 0-7.726562-3.460937-7.726562-7.726562v-60.273438c0-4.269531 3.460938-7.726562 7.726562-7.726562 4.265626 0 7.726563 3.457031 7.726563 7.726562v60.273438c0 4.265625-3.460937 7.726562-7.726563 7.726562zm0 0" fill="#8c6c6c"/><path d="m0 435.113281v-202.6875c0-16.929687 13.722656-30.652343 30.648438-30.652343h450.703124c16.925782 0 30.648438 13.722656 30.648438 30.652343v96.746094c0 11.210937-4.550781 21.371094-11.902344 28.714844-7.28125 7.28125-17.300781 11.808593-28.382812 11.902343-22.535156.1875-40.976563 18.035157-40.976563 40.574219v24.757813c0 37.875-30.703125 68.578125-68.578125 68.578125h-293.570312c-37.882813 0-68.589844-30.707031-68.589844-68.585938zm0 0" fill="#60daff"/><path d="m512 232.425781v55.3125c0-16.925781-13.722656-30.648437-30.648438-30.648437h-450.703124c-16.925782 0-30.648438 13.722656-30.648438 30.648437v-55.308593c0-16.925782 13.722656-30.660157 30.648438-30.660157h450.703124c16.925782 0 30.648438 13.734375 30.648438 30.65625zm0 0" fill="#38aaff"/><path d="m352.492188 456.914062c-11.59375 0-21.828126-6.972656-26.074219-17.765624-1.90625-4.84375-6.496094-7.972657-11.699219-7.972657-5.199219 0-9.789062 3.128907-11.695312 7.972657-4.246094 10.789062-14.484376 17.761718-26.078126 17.761718-11.589843 0-21.828124-6.972656-26.074218-17.761718-1.90625-4.84375-6.496094-7.972657-11.695313-7.972657-5.203125 0-9.792969 3.128907-11.699219 7.972657-4.246093 10.792968-14.484374 17.765624-26.074218 17.765624-11.59375 0-21.828125-6.972656-26.078125-17.765624-1.902344-4.84375-6.496094-7.96875-11.695313-7.96875-5.199218 0-9.792968 3.128906-11.699218 7.96875-1.5625 3.972656-6.046876 5.921874-10.019532 4.359374-3.96875-1.5625-5.921875-6.046874-4.359375-10.019531 4.25-10.789062 14.484375-17.761719 26.078125-17.761719s21.828125 6.972657 26.074219 17.761719c1.90625 4.84375 6.496094 7.972657 11.695313 7.972657 5.203124 0 9.792968-3.128907 11.699218-7.972657 4.246094-10.789062 14.480469-17.761719 26.074219-17.761719s21.828125 6.972657 26.078125 17.761719c1.90625 4.84375 6.496094 7.972657 11.695312 7.972657 5.199219 0 9.792969-3.128907 11.699219-7.972657 4.246094-10.789062 14.480469-17.761719 26.074219-17.761719s21.828125 6.972657 26.078125 17.761719c1.902344 4.84375 6.496094 7.972657 11.695313 7.972657 5.199218 0 9.789062-3.128907 11.695312-7.972657 1.566406-3.96875 6.050781-5.921875 10.023438-4.359375 3.96875 1.5625 5.921874 6.050782 4.359374 10.019532-4.25 10.792968-14.484374 17.765624-26.078124 17.765624zm0 0" fill="#38aaff"/><path d="m356.730469 332.617188c-2.511719 7.5625-9.550781 12.351562-17.109375 12.351562-1.875 0-3.792969-.296875-5.675782-.925781l-96.558593-32.078125c-1.855469 3.972656-4.410157 7.695312-7.695313 10.96875l-45.101562 44.347656h-118.433594l89.289062-88.523438-38.910156-19.417968-26.382812 54.023437c-3.121094 6.398438-9.539063 10.117188-16.214844 10.117188-2.648438 0-5.347656-.589844-7.890625-1.835938-8.953125-4.367187-12.664063-15.164062-8.292969-24.105469l27.308594-55.9375c7.367188-15.074218 24.929688-22.449218 40.847656-17.15625l.121094.042969 54.785156 23.292969 48.875 20.777344c2.398438 2.402344 12.742188 7.089844 16.121094 8.210937l23.664062 7.863281 75.832032 25.1875c9.445312 3.140626 14.5625 13.351563 11.421875 22.796876zm0 0" fill="#ffb38c"/><path d="m269.476562 284.632812c-9.335937 7.078126-20.957031 11.277344-33.542968 11.277344-28.125 0-51.449219-20.984375-55.117188-48.128906l48.871094 20.78125c2.402344 2.398438 12.746094 7.085938 16.125 8.210938zm0 0" fill="#e78e6f"/><path d="m279.183594 240.292969c0 23.890625-19.363282 43.253906-43.253906 43.253906-23.886719 0-43.25-19.363281-43.25-43.253906 0-23.886719 19.363281-43.253907 43.25-43.253907 23.890624 0 43.253906 19.367188 43.253906 43.253907zm0 0" fill="#ffb38c"/><path d="m228.707031 347.5c-2.847656 6.558594-9.890625 11.199219-18.132812 11.199219-8.242188 0-15.285157-4.640625-18.128907-11.199219-2.847656-6.558594-9.890624-11.199219-18.132812-11.199219s-15.285156 4.640625-18.128906 11.199219c-2.847656 6.558594-9.890625 11.199219-18.132813 11.199219-8.242187 0-15.285156-4.640625-18.128906-11.199219-2.847656-6.558594-9.890625-11.199219-18.132813-11.199219-8.242187 0-15.285156 4.640625-18.132812 11.199219-2.84375 6.558594-9.886719 11.199219-18.128906 11.199219-8.242188 0-15.285156-4.640625-18.132813-11.199219v39.148438h181.308594v-39.148438zm0 0" fill="#60daff"/><g fill="#38aaff"><path d="m210.574219 366.425781c-11.136719 0-21.039063-6.222656-25.21875-15.851562-1.699219-3.917969-6.136719-6.546875-11.042969-6.546875-4.902344 0-9.339844 2.628906-11.042969 6.550781-4.179687 9.625-14.078125 15.847656-25.214843 15.847656-11.140626 0-21.039063-6.222656-25.21875-15.851562-1.703126-3.917969-6.140626-6.546875-11.046876-6.546875-4.902343 0-9.339843 2.628906-11.042968 6.550781-4.179688 9.625-14.078125 15.847656-25.21875 15.847656-11.136719 0-21.035156-6.222656-25.214844-15.851562-1.699219-3.914063.09375-8.464844 4.007812-10.164063 3.917969-1.695312 8.464844.097656 10.164063 4.011719 1.703125 3.917969 6.140625 6.550781 11.042969 6.550781 4.90625 0 9.34375-2.632812 11.042968-6.550781 4.183594-9.628906 14.082032-15.847656 25.21875-15.847656 11.140626 0 21.039063 6.21875 25.21875 15.847656 1.703126 3.921875 6.140626 6.550781 11.042969 6.550781 4.90625 0 9.34375-2.632812 11.042969-6.550781 4.179688-9.628906 14.082031-15.847656 25.21875-15.847656 11.140625 0 21.039062 6.21875 25.21875 15.847656 1.699219 3.917969 6.140625 6.550781 11.042969 6.550781 3.746093 0 7.191406-1.476562 9.445312-4.046875 2.8125-3.210937 7.691407-3.53125 10.902344-.722656 3.210937 2.8125 3.53125 7.695313.71875 10.90625-5.1875 5.921875-12.867187 9.316406-21.066406 9.316406zm0 0"/><path d="m275.183594 394.375c-.011719 0-.023438 0-.035156 0l-.113282-.003906c-4.265625-.015625-7.710937-3.492188-7.691406-7.757813.019531-4.257812 3.472656-7.691406 7.726562-7.691406h.035157.113281c4.265625.015625 7.710938 3.492187 7.691406 7.757813-.019531 4.257812-3.476562 7.695312-7.726562 7.695312zm0 0"/><path d="m423.121094 299.570312h-.113282c-4.265624 0-7.726562-3.460937-7.726562-7.726562s3.460938-7.726562 7.726562-7.726562h.113282c4.269531 0 7.726562 3.460937 7.726562 7.726562s-3.457031 7.726562-7.726562 7.726562zm0 0"/><path d="m296.167969 412.777344c-.011719 0-.023438 0-.035157 0h-.113281c-4.265625-.019532-7.710937-3.496094-7.691406-7.761719.019531-4.253906 3.476563-7.691406 7.726563-7.691406h.035156.113281c4.265625.019531 7.710937 3.492187 7.691406 7.761719-.019531 4.253906-3.476562 7.691406-7.726562 7.691406zm0 0"/><path d="m123.21875 427.027344h-.113281c-4.265625 0-7.726563-3.457032-7.726563-7.722656 0-4.269532 3.460938-7.726563 7.726563-7.726563h.113281c4.265625 0 7.726562 3.457031 7.726562 7.726563 0 4.265624-3.460937 7.722656-7.726562 7.722656zm0 0"/></g><path d="m477.441406 0h-438.183594c-15.15625 0-27.964843 11.882812-28.382812 27.03125-.429688 15.722656 12.183594 28.597656 27.804688 28.597656h37.375c10.757812 0 19.476562 8.722656 19.476562 19.476563v61.910156c0 11.007813 8.925781 19.933594 19.9375 19.933594 11.007812 0 19.933594-8.925781 19.933594-19.933594v-65.609375c0-8.710938 7.066406-15.777344 15.777344-15.777344 8.714843 0 15.78125 7.066406 15.78125 15.777344v30.753906c0 11.011719 8.925781 19.9375 19.933593 19.9375 11.011719 0 19.9375-8.925781 19.9375-19.9375v-27.054687c0-10.753907 8.71875-19.476563 19.476563-19.476563h37.300781c10.757813 0 19.480469 8.722656 19.480469 19.476563v5.574219c0 11.007812 8.925781 19.933593 19.933594 19.933593 11.011718 0 19.9375-8.925781 19.9375-19.933593v-13.769532c0-6.230468 5.050781-11.28125 11.277343-11.28125 6.230469 0 11.28125 5.050782 11.28125 11.28125v55.851563c0 11.011719 8.925781 19.9375 19.9375 19.9375 11.007813 0 19.933594-8.925781 19.933594-19.9375v-47.65625c0-10.753907 8.722656-19.476563 19.476563-19.476563h71.992187c15.15625 0 27.964844-11.882812 28.382813-27.03125.433593-15.71875-12.179688-28.597656-27.800782-28.597656zm0 0" fill="#a2d961"/><path d="m336.085938 192.390625h69.914062v71.464844h-69.914062zm0 0" fill="#c89b9b"/><path d="m377.90625 223.722656c-4.269531 0-7.726562-3.460937-7.726562-7.726562v-12.160156c0-4.265626 3.457031-7.726563 7.726562-7.726563 4.265625 0 7.726562 3.460937 7.726562 7.726563v12.160156c0 4.265625-3.460937 7.726562-7.726562 7.726562zm0 0" fill="#b08989"/><path d="m406.117188 201.777344h-70.148438c-9.359375 0-16.949219-7.589844-16.949219-16.953125 0-9.359375 7.589844-16.949219 16.949219-16.949219h70.148438c9.359374 0 16.949218 7.589844 16.949218 16.949219 0 9.363281-7.589844 16.953125-16.949218 16.953125zm0 0" fill="#a2d961"/><path d="m449.132812 252.679688c-2.101562 4.839843-7.296874 8.265624-13.378906 8.265624-6.082031 0-11.277344-3.425781-13.378906-8.265624-2.101562-4.839844-7.296875-8.265626-13.378906-8.265626-6.082032 0-11.277344 3.425782-13.378906 8.265626-2.101563 4.839843-7.296876 8.265624-13.378907 8.265624s-11.277343-3.425781-13.378906-8.265624c-2.101563-4.839844-7.296875-8.265626-13.378906-8.265626s-11.277344 3.425782-13.378907 8.265626c-2.101562 4.839843-7.296874 8.265624-13.378906 8.265624-6.082031 0-11.277344-3.425781-13.378906-8.265624v28.886718h133.789062zm0 0" fill="#60daff"/><path d="m435.753906 268.671875c-9.027344 0-17.058594-5.070313-20.464844-12.914063-.78125-1.800781-3.03125-3.617187-6.292968-3.617187-3.261719 0-5.511719 1.816406-6.292969 3.617187-3.402344 7.84375-11.4375 12.914063-20.464844 12.914063-9.027343 0-17.058593-5.070313-20.464843-12.914063-.78125-1.800781-3.03125-3.617187-6.292969-3.617187s-5.507813 1.816406-6.289063 3.617187c-3.40625 7.84375-11.441406 12.914063-20.46875 12.914063s-17.058594-5.070313-20.464844-12.914063c-1.699218-3.914062.097657-8.46875 4.011719-10.164062 3.914063-1.699219 8.464844.09375 10.164063 4.007812.78125 1.800782 3.027344 3.617188 6.289062 3.617188 3.261719 0 5.511719-1.816406 6.292969-3.617188 3.40625-7.84375 11.4375-12.914062 20.464844-12.914062 9.027343 0 17.0625 5.070312 20.46875 12.914062.78125 1.800782 3.027343 3.617188 6.289062 3.617188 3.265625 0 5.511719-1.816406 6.292969-3.617188 3.40625-7.84375 11.441406-12.914062 20.464844-12.914062 9.03125 0 17.0625 5.070312 20.46875 12.917969.78125 1.796875 3.027344 3.613281 6.289062 3.613281 2.152344 0 4.1875-.859375 5.445313-2.296875 2.8125-3.210937 7.695312-3.53125 10.90625-.722656 3.207031 2.8125 3.53125 7.695312.71875 10.90625-4.214844 4.808593-10.433594 7.566406-17.070313 7.566406zm0 0" fill="#38aaff"/></svg>