<svg height="512pt" viewBox="-7 0 512 512" width="512pt" xmlns="http://www.w3.org/2000/svg"><path d="m121.019531 35.148438v-19.976563c0-8.378906-6.792969-15.171875-15.171875-15.171875s-15.171875 6.792969-15.171875 15.171875v19.976563zm0 0" fill="#4c78a0"/><path d="m407.59375 35.148438v-19.976563c0-8.378906-6.792969-15.171875-15.171875-15.171875s-15.167969 6.792969-15.167969 15.171875v19.976563zm0 0" fill="#4c78a0"/><path d="m429.273438 246.027344h-360.277344c-5.691406 0-10.300782-4.613282-10.300782-10.304688v-200.101562c0-5.6875 4.609376-10.300782 10.300782-10.300782h360.277344c5.691406 0 10.300781 4.613282 10.300781 10.300782v200.105468c0 5.6875-4.609375 10.300782-10.300781 10.300782zm0 0" fill="#235872"/><path d="m439.574219 35.621094v185.636718h-380.878907v-185.636718c0-5.691406 4.613282-10.304688 10.304688-10.304688h360.269531c5.691407 0 10.304688 4.613282 10.304688 10.304688zm0 0" fill="#60daff"/><path d="m317.957031 25.316406-195.949219 195.941406h-36.765624l195.9375-195.941406zm0 0" fill="#a0ecff"/><path d="m412.71875 25.316406-195.949219 195.941406h-75.28125l195.949219-195.941406zm0 0" fill="#a0ecff"/><path d="m204.246094 345.46875h-126.109375v-67.246094c0-20.839844 16.894531-37.734375 37.734375-37.734375h50.640625c20.839843 0 37.734375 16.894531 37.734375 37.734375zm0 0" fill="#f55"/><path d="m402.785156 349.507812h-126.109375v-67.246093c0-20.839844 16.894531-37.734375 37.730469-37.734375h50.644531c20.839844 0 37.734375 16.894531 37.734375 37.734375zm0 0" fill="#1ee5ed"/><path d="m185.5625 186.628906c-3.847656 0-7.179688-2.871094-7.660156-6.789062-.515625-4.238282 2.496094-8.089844 6.734375-8.609375 3.617187-.441407 7.039062-1.414063 10.167969-2.886719 3.855468-1.820312 8.460937-.167969 10.285156 3.6875 1.816406 3.859375.167968 8.464844-3.695313 10.285156-4.621093 2.179688-9.628906 3.613282-14.886719 4.253906-.316406.039063-.632812.058594-.945312.058594zm0 0" fill="#336686"/><path d="m196.605469 190.757812c0 3.214844-.292969 6.375-.855469 9.433594-.191406 1.035156-.414062 2.070313-.664062 3.082032-5.609376 22.566406-26.007813 39.296874-50.304688 39.296874-28.617188 0-51.8125-23.207031-51.8125-51.8125 0-2.386718.15625-4.722656.472656-7.027343.144532-1.101563.335938-2.195313.550782-3.273438.773437-3.902343 2.011718-7.65625 3.621093-11.1875 8.160157-17.902343 26.21875-30.335937 47.167969-30.335937 28.054688 0 50.902344 22.296875 51.789062 50.136718.023438.550782.035157 1.113282.035157 1.6875zm0 0" fill="#336686"/><path d="m357.636719 249.351562h-35.8125c-23.011719 0-39.722657-21.878906-33.667969-44.078124l6.949219-25.476563c5.488281-20.121094 23.765625-34.082031 44.625-34.082031s39.136719 13.960937 44.625 34.082031l6.945312 25.476563c6.054688 22.199218-10.65625 44.078124-33.664062 44.078124zm0 0" fill="#b08989"/><path d="m53.160156 512c-9.035156 0-16.363281-7.324219-16.363281-16.363281v-27.539063h32.722656v27.539063c0 9.039062-7.324219 16.363281-16.359375 16.363281zm0 0" fill="#4c78a0"/><path d="m445.109375 512c-9.035156 0-16.363281-7.324219-16.363281-16.363281v-27.539063h32.726562v27.539063c0 9.039062-7.324218 16.363281-16.363281 16.363281zm0 0" fill="#4c78a0"/><path d="m473.578125 475.667969h-448.886719c-13.636718 0-24.691406-11.054688-24.691406-24.691407v-35.390624c0-13.636719 11.054688-24.691407 24.691406-24.691407h448.886719c13.636719 0 24.691406 11.054688 24.691406 24.691407v35.390624c0 13.636719-11.054687 24.691407-24.691406 24.691407zm0 0" fill="#cbd359"/><path d="m468.132812 313.773438v97.816406c0 5.570312-4.523437 10.085937-10.097656 10.085937h-417.800781c-5.574219 0-10.09375-4.511719-10.09375-10.085937v-97.816406c0-24.4375 19.808594-44.246094 44.246094-44.246094h349.5c24.433593 0 44.246093 19.808594 44.246093 44.246094zm0 0" fill="#e6f072"/><path d="m302.242188 381.15625c-.761719 7.59375-5.277344 14.195312-12.0625 17.667969l-11.117188 5.6875c-3.140625 1.605469-6.664062 2.453125-10.1875 2.453125-5.058594 0-10.015625-1.730469-13.960938-4.894532l-12.351562-9.859374c-2.566406-2.050782-4.667969-4.46875-6.304688-7.105469-5.644531-2.082031-10.621093-5.832031-14.164062-10.871094l-65.59375-93.003906c-2.511719-3.5625-4.191406-7.539063-4.984375-11.703125h70.214844l49.429687 70.105468c1.515625 2.140626 2.699219 4.417969 3.585938 6.765626.976562.597656 1.945312 1.246093 2.851562 1.96875l16.351563 13.074218c5.964843 4.757813 9.0625 12.132813 8.292969 19.714844zm0 0" fill="#cbd359"/><path d="m468.125 313.777344v28.8125c0-24.433594-19.800781-44.246094-44.246094-44.246094h-349.488281c-24.445313 0-44.246094 19.8125-44.246094 44.246094v-28.8125c0-24.433594 19.800781-44.246094 44.246094-44.246094h349.488281c24.445313 0 44.246094 19.8125 44.246094 44.246094zm0 0" fill="#cbd359"/><path d="m164.246094 269.527344h-16.566406c-.503907-2.207032-.699219-4.460938-.597657-6.726563.1875-4.265625 3.792969-7.59375 8.066407-7.378906 4.253906.195313 7.5625 3.800781 7.367187 8.066406-.050781 1.082031.082031 2.144531.371094 3.171875.296875 1.011719.75 1.980469 1.359375 2.867188zm0 0" fill="#f72b2b"/><path d="m246.640625 374.597656c-5.546875 0-11.007813-2.605468-14.449219-7.484375l-65.585937-93.007812c-5.621094-7.972657-3.71875-18.992188 4.253906-24.613281 7.972656-5.621094 18.992187-3.714844 24.613281 4.253906l65.585938 93.011718c5.621094 7.96875 3.714844 18.988282-4.253906 24.609376-3.09375 2.183593-6.648438 3.230468-10.164063 3.230468zm0 0" fill="#f55"/><path d="m250.28125 382.550781 12.347656 9.867188c3.070313 2.453125 7.300782 2.882812 10.800782 1.089843l11.117187-5.691406c6.46875-3.308594 7.363281-12.183594 1.6875-16.71875l-16.355469-13.070312c-6.773437-5.414063-16.648437-4.308594-22.0625 2.460937-5.410156 6.773438-4.308594 16.652344 2.464844 22.0625zm0 0" fill="#ffb38c"/></svg>